<?xml version="1.0" standalone="yes"?>
<svg version="1.1" viewBox="0.0 0.0 348.0 348.0" fill="none" stroke="none" stroke-linecap="square" stroke-miterlimit="10" xmlns="http://www.w3.org/2000/svg" xmlns:xlink="http://www.w3.org/1999/xlink">
    <clipPath id="p.0">
        <path d="m0 0l348.0 0l0 348.0l-348.0 0l0 -348.0z" clip-rule="nonzero"></path>
    </clipPath>
    <g clip-path="url(#p.0)">
        <path fill="#000000" fill-opacity="0.0" d="m0 0l348.0 0l0 348.0l-348.0 0z" fill-rule="nonzero"></path>
        <path fill="#ff0000" fill-opacity="0.3" d="m-6.0 0l348.0 0l0 347.9685l-348.0 0z" fill-rule="nonzero"></path>
        <path fill="#000000" fill-opacity="0.0" d="m5.07874 5.7758217l336.9134 0l0 337.6693l-336.9134 0z" fill-rule="nonzero"></path>
        <path stroke="#000000" stroke-width="2.0" stroke-linejoin="round" stroke-linecap="butt" d="m5.07874 5.7758217l336.9134 0l0 337.6693l-336.9134 0z" fill-rule="nonzero"></path>
        <path fill="#ffffff" d="m282.73444 40.553925l0 0c0 -8.375591 6.966034 -15.165352 15.5590515 -15.165352l0 0c4.126526 0 8.084015 1.5977726 11.001923 4.441828c2.9178772 2.844057 4.557129 6.7014217 4.557129 10.723524l0 0c0 8.375595 -6.9660034 15.165356 -15.5590515 15.165356l0 0c-8.593018 0 -15.5590515 -6.7897606 -15.5590515 -15.165356z" fill-rule="nonzero"></path>
        <path stroke="#000000" stroke-width="2.0" stroke-linejoin="round" stroke-linecap="butt" d="m282.73444 40.553925l0 0c0 -8.375591 6.966034 -15.165352 15.5590515 -15.165352l0 0c4.126526 0 8.084015 1.5977726 11.001923 4.441828c2.9178772 2.844057 4.557129 6.7014217 4.557129 10.723524l0 0c0 8.375595 -6.9660034 15.165356 -15.5590515 15.165356l0 0c-8.593018 0 -15.5590515 -6.7897606 -15.5590515 -15.165356z" fill-rule="nonzero"></path>
    </g>
    
    <rect x="50" y="13" width="188" height="48" fill="black"></rect>
    <text x="144" y="49" text-anchor="middle" alignment-base="central" font-family="Arial" font-size="32px" fill="white">[ DISPLAY ]</text>
    
    <rect x="50"  y="64" width="60" height="62" fill="white" stroke="black" stroke-width="2"></rect>
    <rect x="114" y="64" width="60" height="62" fill="white" stroke="black" stroke-width="2"></rect>
    <rect x="178" y="64" width="60" height="62" fill="white" stroke="black" stroke-width="2"></rect>
    
    <rect x="50"  y="130" width="60" height="62" fill="white" stroke="black" stroke-width="2"></rect>
    <rect x="114" y="130" width="60" height="62" fill="white" stroke="black" stroke-width="2"></rect>
    <rect x="178" y="130" width="60" height="62" fill="white" stroke="black" stroke-width="2"></rect>
    
    <rect x="50"  y="196" width="60" height="62" fill="white" stroke="black" stroke-width="2"></rect>
    <rect x="114" y="196" width="60" height="62" fill="white" stroke="black" stroke-width="2"></rect>
    <rect x="178" y="196" width="60" height="62" fill="white" stroke="black" stroke-width="2"></rect>
    
    <rect x="50"  y="262" width="60" height="62" fill="#ff8888" stroke="black" stroke-width="2"></rect>
    <rect x="114" y="262" width="60" height="62" fill="white" stroke="black" stroke-width="2"></rect>
    <rect x="178" y="262" width="60" height="62" fill="#88ff88" stroke="black" stroke-width="2"></rect>
    
    <text x="80" y="106" text-anchor="middle" alignment-base="central" font-family="Arial" font-size="32px" fill="black">7</text>
    <text x="144" y="106" text-anchor="middle" alignment-base="central" font-family="Arial" font-size="32px" fill="black">8</text>
    <text x="208" y="106" text-anchor="middle" alignment-base="central" font-family="Arial" font-size="32px" fill="black">9</text>
    
    <text x="80" y="172" text-anchor="middle" alignment-base="central" font-family="Arial" font-size="32px" fill="black">4</text>
    <text x="144" y="172" text-anchor="middle" alignment-base="central" font-family="Arial" font-size="32px" fill="black">5</text>
    <text x="208" y="172" text-anchor="middle" alignment-base="central" font-family="Arial" font-size="32px" fill="black">6</text>
    
    <text x="80" y="238" text-anchor="middle" alignment-base="central" font-family="Arial" font-size="32px" fill="black">1</text>
    <text x="144" y="238" text-anchor="middle" alignment-base="central" font-family="Arial" font-size="32px" fill="black">2</text>
    <text x="208" y="238" text-anchor="middle" alignment-base="central" font-family="Arial" font-size="32px" fill="black">3</text>
    
    <text x="80" y="304" text-anchor="middle" alignment-base="central" font-family="Arial" font-size="24px" fill="black">CLR</text>
    <text x="144" y="304" text-anchor="middle" alignment-base="central" font-family="Arial" font-size="32px" fill="black">0</text>
    <text x="208" y="304" text-anchor="middle" alignment-base="central" font-family="Arial" font-size="24px" fill="black">ENT</text>
    
</svg>
